<svg xmlns="http://www.w3.org/2000/svg" viewBox="0 0 100 100">
  <!-- Wrapper (Tan/Light Brown) -->
  <path d="M22,55 L78,55 L70,92 L30,92 Z" fill="#D97706" />
  <!-- Vertical lines on wrapper -->
  <path d="M35,57 L38,88 M50,57 L50,88 M65,57 L62,88" stroke="#B45309" stroke-width="2" stroke-linecap="round" />
  
  <!-- Muffin Top (Golden Brown) -->
  <path d="M10,55 Q10,25 50,25 Q90,25 90,55 Q90,65 75,65 L25,65 Q10,65 10,55 Z" fill="#F59E0B" />
  
  <!-- Highlights on Top -->
  <path d="M35,35 Q40,30 50,30" stroke="white" stroke-width="1.5" stroke-linecap="round" fill="none" opacity="0.6" />

  <!-- Chocolate Chips (Dark Brown) -->
  <circle cx="30" cy="40" r="3" fill="#451A03" />
  <circle cx="50" cy="35" r="3.5" fill="#451A03" />
  <circle cx="70" cy="40" r="3" fill="#451A03" />
  <circle cx="20" cy="50" r="2.5" fill="#451A03" />
  <circle cx="40" cy="50" r="3" fill="#451A03" />
  <circle cx="60" cy="48" r="3" fill="#451A03" />
  <circle cx="80" cy="50" r="2.5" fill="#451A03" />
</svg>
